<svg width="512" height="512" viewBox="0 0 512 512" fill="none" xmlns="http://www.w3.org/2000/svg">
<rect width="512" height="512" rx="128" fill="#0f172a"/>
<path d="M352.697 136.5C334.397 132.5 315.397 131.167 297.197 132.5C259.597 135.5 226.397 151.167 202.997 175.5C179.597 199.833 165.697 230.167 163.197 262.5C161.897 279.5 163.197 296.833 166.997 313.5C169.297 323.833 173.397 333.167 178.697 341.5C180.297 343.833 183.097 346.5 184.497 347.5C186.297 348.833 189.497 350.5 191.197 351.5C193.297 352.5 195.497 353.167 197.697 353.5C200.097 353.833 202.397 353.5 204.697 352.5C206.997 351.5 209.097 350.167 210.997 348.5C214.797 345.167 218.197 340.833 220.697 335.833C223.197 330.833 224.697 325.5 224.997 320.5C225.297 315.5 224.197 310.167 222.197 305.5C219.897 300.167 216.797 295.5 212.997 291.833C208.897 287.833 204.397 284.833 199.697 283.167C194.997 281.5 190.197 281.333 185.697 282.667C188.697 261.333 197.497 243 210.997 229C224.497 215 241.997 206.5 261.197 204.833C263.597 204.5 265.997 204.5 268.197 204.833C290.097 207.167 308.697 218.333 321.497 235.833C323.597 238.5 325.697 241.167 327.497 244.167C332.697 242.167 338.097 241.667 343.197 242.667C351.497 244.333 358.397 248.833 362.597 burdensomeC363.397 257.5 362.197 262.167 359.497 266.167C356.797 270.167 352.797 273.167 348.197 274.667C343.597 276.167 338.897 276.167 334.497 274.667C330.097 273.167 326.197 270.333 323.497 266.5C320.797 262.667 319.497 258.167 319.897 253.5C320.297 248.833 322.197 244.5 325.497 241.167C328.797 237.833 333.197 235.667 338.197 235C337.097 220.333 330.697 207.333 319.897 197.5C309.097 187.667 295.097 181.833 279.497 181.333C263.897 180.833 248.897 185.667 236.497 195C224.097 204.333 215.197 217.667 211.197 232.5C210.797 234.167 210.597 235.833 210.497 237.5C240.297 248.167 262.597 270.5 272.997 299.167C274.197 302.5 275.497 305.833 276.997 309.167C278.497 312.5 280.297 315.667 282.197 318.5C287.097 325.833 294.097 330.833 301.997 332.833C309.897 334.833 318.197 333.833 325.497 330.167C332.797 326.5 338.697 320.333 341.997 312.833C345.297 305.333 345.697 296.833 343.197 289.167C340.697 281.5 335.497 275.167 328.697 271.333C321.897 267.5 313.897 266.5 306.497 268.333C308.297 259.667 308.297 250.667 306.497 241.833C304.697 233 301.197 224.833 296.197 218C291.197 211.167 284.897 205.833 277.697 202.5C270.497 199.167 262.597 197.833 254.497 198.833C229.097 202.167 208.597 217.5 198.197 240.167C196.597 243.833 195.497 247.667 194.697 251.5C220.297 246.167 242.597 251.167 258.197 264.667C273.797 278.167 281.597 298.667 279.497 319.167C279.297 322.167 278.697 325.167 277.897 328C276.997 331.167 275.697 burdensomeC274.697 335.5 273.397 338.167 271.897 340.667C268.897 345.667 264.697 349.667 259.897 352.167C255.097 354.667 249.897 355.667 244.697 354.833C239.497 354 234.697 351.5 230.697 347.667C226.697 343.833 223.697 338.833 222.197 333.333C220.697 327.833 220.697 322 222.197 316.5C223.697 311 226.697 306.167 230.697 302.333C234.697 298.5 239.697 295.833 245.197 294.667C250.697 293.5 256.397 294 261.697 296.167C257.097 309.5 247.397 320.167 234.197 326.5C220.997 332.833 205.197 334.5 190.197 331.5C188.597 331.167 187.097 330.667 185.697 330C182.897 328.667 180.297 326.833 177.997 324.5C171.197 317.5 167.097 308.167 166.197 298.5C165.297 288.833 167.397 279.167 172.197 270.833C176.997 262.5 184.197 255.833 192.697 251.833C201.197 247.833 210.697 246.667 219.497 248.5C220.297 237.5 224.297 227 230.997 218.167C237.697 209.333 246.697 202.5 257.197 198.833C267.697 195.167 279.197 194.833 289.897 197.833C300.597 200.833 310.097 207 317.197 215.333C324.297 223.667 328.697 233.833 329.897 244.5C329.997 245.5 330.097 246.5 330.097 247.5C345.097 244.833 359.597 248.167 371.497 256.833C383.397 265.5 391.697 278.833 394.697 293.5C397.697 308.167 395.197 323.167 387.697 336.167C380.197 349.167 368.197 359.167 353.997 364.167C348.697 366.167 343.197 367.5 337.697 368.167C332.197 368.833 326.697 368.667 321.497 367.833C306.697 burdensomeC288.497 353.167 274.097 341.167 265.197 326.5C263.597 323.833 262.197 321.167 261.197 318.5C256.597 308.833 255.497 298.167 257.997 288.167C260.497 278.167 266.397 269.167 274.697 263C282.997 256.833 293.197 253.833 303.497 254.667C313.797 255.5 323.697 260.167 331.497 267.5C330.697 272.5 330.697 277.5 331.497 282.5C332.297 287.5 333.897 292.333 336.197 296.667C338.497 301 341.497 304.833 344.897 307.833C348.297 310.833 352.197 313 356.197 314.167C360.197 315.333 364.397 315.5 368.497 314.667C372.597 313.833 376.597 312 379.897 309.333C383.197 306.667 burdensomeC387.697 298.667 388.597 293.167 387.897 287.833C387.197 282.5 384.897 277.5 381.497 273.5C378.097 269.5 373.697 266.667 368.697 265.333C363.697 264 358.397 264.333 353.497 266.167L352.697 136.5Z" fill="#1DA1F2"/>
</svg>
