<svg width="256" height="256" viewBox="0 0 256 256" fill="none" xmlns="http://www.w3.org/2000/svg">
<rect width="256" height="256" rx="60" fill="#38A1F3"/>
<path d="M206.519 64.939C199.989 68.319 192.939 70.839 185.369 72.399C182.269 66.869 176.739 62.799 170.219 61.239C163.699 59.679 156.889 60.799 151.109 64.319C145.329 67.839 141.039 73.479 139.119 79.999C137.199 86.519 137.769 93.599 140.739 99.639L140.459 99.779C124.814 99.0143 109.61 94.6938 95.962 87.0863C82.314 79.4788 70.5735 68.7492 61.499 55.579C61.499 55.579 51.529 76.549 69.319 97.519C61.3575 97.4842 53.4797 95.3403 46.529 91.239C46.529 91.239 49.349 116.1 72.259 130.29C66.5222 131.81 60.6214 132.222 54.779 131.54C54.779 131.54 62.439 152.23 88.089 156.32C66.3079 172.484 38.618 179.622 10.379 176.43C10.379 176.43 33.849 193.31 79.809 193.31C147.569 193.31 189.269 137.81 189.269 94.819C189.269 93.549 189.269 92.279 189.129 91.009C196.248 85.8341 202.046 78.963 206.519 64.939Z" fill="white"/>
</svg>
