<svg width="48" height="48" viewBox="0 0 48 48" fill="none" xmlns="http://www.w3.org/2000/svg">
<rect width="48" height="48" rx="8" fill="#38B6FF"/>
<path d="M33.2501 12C33.2501 12 37.0001 13.5 37.0001 18.25C37.0001 24.25 30.2501 27.25 24.0001 24.25C24.0001 24.25 25.0001 29.5 20.5001 32.5C16.0001 35.5 11.0001 34.25 11.0001 34.25C11.0001 34.25 10.7501 31.25 15.2501 29.5C19.7501 27.75 22.2501 24.25 22.2501 24.25C22.2501 24.25 15.0001 21.25 15.2501 16C15.5001 10.75 21.0001 12.25 22.2501 13.75C22.2501 13.75 21.5001 9.25002 26.5001 9.25002C31.5001 9.25002 33.2501 12 33.2501 12Z" fill="white"/>
</svg>
