<svg width="32" height="32" viewBox="0 0 32 32" fill="none" xmlns="http://www.w3.org/2000/svg">
<rect width="32" height="32" rx="6" fill="#1AC0F8"/>
<path d="M16 8.545C13.606 10.045 11.366 11.045 9 11.045C6.634 11.045 4.394 10.045 2 8.545C2 7.427 2 6.545 2 6C2 5.455 2 4.573 9 3.545C11.366 2.545 13.606 1.545 16 1.545C18.366 1.545 20.606 2.545 23 3.545C30 4.573 30 5.455 30 6C30 6.545 30 7.427 23 8.545Z M2 12H30 M2 18H30" stroke="white" stroke-width="2" stroke-linecap="round" stroke-linejoin="round" transform="translate(1, 6) scale(0.9)"/>
</svg>
