<svg width="32" height="32" viewBox="0 0 32 32" fill="none" xmlns="http://www.w3.org/2000/svg">
<rect width="32" height="32" rx="8" fill="#3B82F6"/>
<path d="M25.4667 8.62584C25.0163 8.84073 24.531 9.00284 24.0267 9.10237C24.551 8.79153 24.9702 8.32483 25.1667 8.75836C24.6713 9.05237 24.1333 9.27713 23.568 9.42437C23.1026 8.92984 22.4552 8.60156 21.7413 8.60156C20.376 8.60156 19.2826 9.6949 19.2826 11.0602C19.2826 11.261 19.3053 11.4576 19.3493 11.6479C16.488 11.5049 13.9866 10.1564 12.2453 8.16353C11.9386 8.69237 11.756 9.31353 11.756 9.9799C11.756 10.8802 12.2173 11.6887 12.8946 12.1644C12.4799 12.152 12.0773 12.0356 11.7213 11.8391V11.8964C11.7213 13.1202 12.5906 14.1615 13.7586 14.3915C13.5533 14.4487 13.3386 14.4835 13.116 14.4835C12.9533 14.4835 12.7986 14.4687 12.648 14.4402C12.9773 15.4415 13.8826 16.1835 14.9666 16.2064C14.0986 16.8644 12.9973 17.2671 11.7946 17.2671C11.5773 17.2671 11.364 17.2523 11.156 17.2287C12.2533 17.9487 13.572 18.3964 15.0093 18.3964C21.732 18.3964 24.2386 12.9156 24.2386 8.21636C24.2386 8.06913 24.2346 7.92189 24.228 7.77584C24.9533 7.25237 25.5667 6.58713 26 5.83353C25.3333 6.13153 24.6226 6.32873 23.8826 6.41913C24.5773 6.00836 25.112 5.35237 25.3493 4.58713C24.708 4.96436 23.9986 5.25237 23.2533 5.42836" fill="white"/>
</svg>
